<svg width="18" height="14" viewBox="0 0 18 14" fill="none" xmlns="http://www.w3.org/2000/svg">
<path d="M15.067 1.54948C13.9413 1.02474 12.7226 0.643881 11.4531 0.423828C11.4307 0.424146 11.4094 0.433272 11.3938 0.449219C11.2415 0.728516 11.0637 1.09245 10.9452 1.37175C9.59868 1.16875 8.22929 1.16875 6.88273 1.37175C6.76424 1.08399 6.58651 0.728516 6.4257 0.449219C6.41724 0.432292 6.39185 0.423828 6.36646 0.423828C5.09692 0.643881 3.88664 1.02474 2.75252 1.54948C2.74406 1.54948 2.73559 1.55794 2.72713 1.56641C0.425042 5.01107 -0.209725 8.36264 0.103427 11.6804C0.103427 11.6973 0.11189 11.7142 0.128817 11.7227C1.65226 12.8399 3.11645 13.5169 4.56372 13.9655C4.58911 13.974 4.6145 13.9655 4.62296 13.9486C4.96151 13.4831 5.26619 12.9922 5.52856 12.4759C5.54549 12.4421 5.52856 12.4082 5.49471 12.3998C5.01229 12.2136 4.55526 11.9935 4.10669 11.7396C4.07283 11.7227 4.07283 11.6719 4.09822 11.6465C4.19132 11.5788 4.28442 11.5026 4.37752 11.4349C4.39445 11.418 4.41984 11.418 4.43677 11.4264C7.34823 12.7552 10.4882 12.7552 13.3658 11.4264C13.3827 11.418 13.4081 11.418 13.4251 11.4349C13.5182 11.5111 13.6113 11.5788 13.7044 11.655C13.7382 11.6804 13.7382 11.7311 13.6959 11.7481C13.2558 12.0104 12.7903 12.222 12.3079 12.4082C12.274 12.4167 12.2656 12.459 12.274 12.4844C12.5449 13.0007 12.8495 13.4916 13.1796 13.9571C13.205 13.9655 13.2304 13.974 13.2558 13.9655C14.7115 13.5169 16.1757 12.8399 17.6992 11.7227C17.7161 11.7142 17.7245 11.6973 17.7245 11.6804C18.0969 7.84636 17.1067 4.52019 15.1008 1.56641C15.0924 1.55794 15.0839 1.54948 15.067 1.54948ZM5.96867 9.65757C5.09692 9.65757 4.36906 8.85353 4.36906 7.86329C4.36906 6.87306 5.08 6.06902 5.96867 6.06902C6.86581 6.06902 7.57674 6.88152 7.56828 7.86329C7.56828 8.85353 6.85734 9.65757 5.96867 9.65757ZM11.8678 9.65757C10.996 9.65757 10.2682 8.85353 10.2682 7.86329C10.2682 6.87306 10.9791 6.06902 11.8678 6.06902C12.7649 6.06902 13.4758 6.88152 13.4674 7.86329C13.4674 8.85353 12.7649 9.65757 11.8678 9.65757Z" fill="#003366"/>
</svg>
