<svg width="17" height="17" viewBox="0 0 17 17" fill="none" xmlns="http://www.w3.org/2000/svg">
<path d="M8.80256 5.79678C8.16604 5.79678 7.55559 6.04963 7.1055 6.49972C6.65541 6.94981 6.40256 7.56026 6.40256 8.19678C6.40256 8.8333 6.65541 9.44375 7.1055 9.89383C7.55559 10.3439 8.16604 10.5968 8.80256 10.5968C9.43908 10.5968 10.0495 10.3439 10.4996 9.89383C10.9497 9.44375 11.2026 8.8333 11.2026 8.19678C11.2026 7.56026 10.9497 6.94981 10.4996 6.49972C10.0495 6.04963 9.43908 5.79678 8.80256 5.79678ZM8.80256 4.19678C9.86342 4.19678 10.8808 4.6182 11.631 5.36835C12.3811 6.1185 12.8026 7.13591 12.8026 8.19678C12.8026 9.25764 12.3811 10.2751 11.631 11.0252C10.8808 11.7754 9.86342 12.1968 8.80256 12.1968C7.74169 12.1968 6.72428 11.7754 5.97413 11.0252C5.22399 10.2751 4.80256 9.25764 4.80256 8.19678C4.80256 7.13591 5.22399 6.1185 5.97413 5.36835C6.72428 4.6182 7.74169 4.19678 8.80256 4.19678ZM14.0026 3.99678C14.0026 4.26199 13.8972 4.51635 13.7097 4.70388C13.5221 4.89142 13.2678 4.99678 13.0026 4.99678C12.7373 4.99678 12.483 4.89142 12.2955 4.70388C12.1079 4.51635 12.0026 4.26199 12.0026 3.99678C12.0026 3.73156 12.1079 3.47721 12.2955 3.28967C12.483 3.10213 12.7373 2.99678 13.0026 2.99678C13.2678 2.99678 13.5221 3.10213 13.7097 3.28967C13.8972 3.47721 14.0026 3.73156 14.0026 3.99678ZM8.80256 1.79678C6.82336 1.79678 6.50016 1.80238 5.57936 1.84318C4.95216 1.87278 4.53136 1.95678 4.14096 2.10878C3.81442 2.22907 3.51913 2.42129 3.27696 2.67118C3.02678 2.91327 2.83429 3.20857 2.71376 3.53518C2.56176 3.92718 2.47776 4.34718 2.44896 4.97358C2.40736 5.85678 2.40176 6.16558 2.40176 8.19678C2.40176 10.1768 2.40736 10.4992 2.44816 11.42C2.47776 12.0464 2.56176 12.468 2.71296 12.8576C2.84896 13.2056 3.00896 13.456 3.27456 13.7216C3.54416 13.9904 3.79456 14.1512 4.13856 14.284C4.53376 14.4368 4.95456 14.5216 5.57856 14.5504C6.46176 14.592 6.77056 14.5968 8.80176 14.5968C10.7818 14.5968 11.1042 14.5912 12.025 14.5504C12.6506 14.5208 13.0714 14.4368 13.4626 14.2856C13.7891 14.1653 14.0844 13.9731 14.3266 13.7232C14.5962 13.4544 14.757 13.204 14.8898 12.8592C15.0418 12.4656 15.1266 12.0448 15.1554 11.4192C15.197 10.5368 15.2018 10.2272 15.2018 8.19678C15.2018 6.21758 15.1962 5.89438 15.1554 4.97358C15.1258 4.34798 15.041 3.92558 14.8898 3.53518C14.7695 3.20864 14.5772 2.91335 14.3274 2.67118C14.0853 2.421 13.79 2.22851 13.4634 2.10798C13.0714 1.95598 12.6506 1.87198 12.025 1.84318C11.1426 1.80158 10.8338 1.79678 8.80176 1.79678M8.80176 0.196777C10.9754 0.196777 11.2466 0.204777 12.1002 0.244777C12.9514 0.284777 13.5322 0.418377 14.0418 0.616777C14.5698 0.819977 15.0146 1.09518 15.4594 1.53918C15.8663 1.93896 16.1811 2.42276 16.3818 2.95678C16.5794 3.46638 16.7138 4.04718 16.7538 4.89918C16.7914 5.75198 16.8018 6.02318 16.8018 8.19678C16.8018 10.3704 16.7938 10.6416 16.7538 11.4944C16.7138 12.3472 16.5794 12.9264 16.3818 13.4368C16.1811 13.9708 15.8663 14.4546 15.4594 14.8544C15.0596 15.2613 14.5758 15.5761 14.0418 15.7768C13.5322 15.9744 12.9514 16.1088 12.1002 16.1488C11.2466 16.1864 10.9754 16.1968 8.80176 16.1968C6.62816 16.1968 6.35696 16.1888 5.50336 16.1488C4.65216 16.1088 4.07216 15.9744 3.56176 15.7768C3.02774 15.5761 2.54394 15.2613 2.14416 14.8544C1.7372 14.4546 1.42241 13.9708 1.22176 13.4368C1.02336 12.9272 0.889758 12.3464 0.849758 11.4944C0.811358 10.6416 0.801758 10.3704 0.801758 8.19678C0.801758 6.02318 0.809758 5.75198 0.849758 4.89918C0.889758 4.04638 1.02336 3.46718 1.22176 2.95678C1.42241 2.42276 1.7372 1.93896 2.14416 1.53918C2.54394 1.13222 3.02774 0.81743 3.56176 0.616777C4.07136 0.418377 4.65136 0.284777 5.50336 0.244777C6.35776 0.207177 6.62896 0.196777 8.80256 0.196777" fill="#023159"/>
</svg>
