<svg width="18" height="18" viewBox="0 0 18 18" fill="none" xmlns="http://www.w3.org/2000/svg">
<path d="M9.33074 0.73291C4.65886 0.73291 0.867188 4.52458 0.867188 9.19646C0.867188 13.8683 4.65886 17.66 9.33074 17.66C14.0026 17.66 17.7943 13.8683 17.7943 9.19646C17.7943 4.52458 14.0026 0.73291 9.33074 0.73291ZM13.2578 6.48813C13.1309 7.82537 12.5807 11.0754 12.3014 12.5734C12.183 13.2082 11.946 13.4198 11.7259 13.4452C11.235 13.4875 10.8626 13.1236 10.3887 12.8104C9.64389 12.3195 9.22072 12.0148 8.50131 11.5409C7.66342 10.9907 8.20509 10.6861 8.68751 10.1952C8.81447 10.0682 10.9811 8.0962 11.0235 7.91847C11.0293 7.89155 11.0285 7.8636 11.0212 7.83705C11.0138 7.8105 11.0001 7.78616 10.9811 7.76612C10.9304 7.72381 10.8626 7.74073 10.8034 7.7492C10.7272 7.76612 9.54233 8.55323 7.23178 10.1105C6.89324 10.339 6.58855 10.4575 6.31772 10.4491C6.01303 10.4406 5.43751 10.2798 5.00587 10.1359C4.47266 9.96665 4.05795 9.87355 4.0918 9.57732C4.10873 9.42498 4.32032 9.27264 4.7181 9.11183C7.18946 8.03696 8.83139 7.32602 9.65236 6.98748C12.0052 6.0057 12.4876 5.83643 12.8093 5.83643C12.877 5.83643 13.0378 5.85336 13.1393 5.938C13.224 6.0057 13.2494 6.0988 13.2578 6.16651C13.2494 6.21729 13.2663 6.36964 13.2578 6.48813Z" fill="#003366"/>
</svg>
