<svg width="20" height="21" viewBox="0 0 20 21" fill="none" xmlns="http://www.w3.org/2000/svg">
<path d="M16.9229 12.1231C16.6101 12.3393 16.2032 12.3673 15.8624 12.1943C15.4707 11.9731 15.2596 11.4543 15.2596 10.7472V8.58036C15.2596 7.54016 14.8476 6.80007 14.1584 6.59915C12.9936 6.25836 12.1238 7.68513 11.788 8.22176L9.728 11.556V7.48675C9.70511 6.54829 9.39992 5.98623 8.8226 5.81837C8.44111 5.70647 7.86887 5.75225 7.3119 6.6017L2.70604 13.995C2.09311 12.8225 1.7752 11.5178 1.78029 10.1953C1.78029 5.73953 5.34086 2.11537 9.728 2.11537C14.1151 2.11537 17.6884 5.73953 17.6884 10.1953V10.2411C17.7317 11.1033 17.4519 11.79 16.9255 12.1231H16.9229ZM19.4662 10.1979V10.1546C19.4306 4.72476 15.0765 0.319824 9.728 0.319824C4.37951 0.319824 0 4.7502 0 10.1953C0 15.6405 4.36425 20.0734 9.728 20.0734C12.1873 20.0734 14.5551 19.1298 16.3405 17.4386C16.7016 17.0978 16.722 16.5306 16.3863 16.1669C16.0633 15.8083 15.5114 15.7829 15.1553 16.1059C15.1553 16.1059 15.1528 16.1059 15.1502 16.1084C11.9991 19.0993 7.01942 18.9671 4.02854 15.816C3.95478 15.7397 3.88357 15.6608 3.8149 15.5794L7.96043 8.91607V11.9909C7.96043 13.4685 8.53266 13.9467 9.01334 14.0865C9.49402 14.2264 10.229 14.1298 10.9996 12.8785L13.2886 9.17294C13.3598 9.05341 13.4285 8.95168 13.4895 8.86266V10.7472C13.4895 12.1282 14.0439 13.232 15.0155 13.7763C15.9158 14.262 17.0094 14.2188 17.8665 13.6618C18.9346 12.9675 19.517 11.7111 19.456 10.1979H19.4662Z" fill="#023159"/>
</svg>
