<svg width="21" height="21" viewBox="0 0 21 21" fill="none" xmlns="http://www.w3.org/2000/svg">
<g clip-path="url(#clip0_917_159)">
<path d="M10.6227 20.1223C16.1043 20.1223 20.5481 15.6785 20.5481 10.1969C20.5481 4.71524 16.1043 0.271484 10.6227 0.271484C5.14102 0.271484 0.697266 4.71524 0.697266 10.1969C0.697266 15.6785 5.14102 20.1223 10.6227 20.1223Z" stroke="#023159" stroke-width="0.461743" stroke-linecap="round" stroke-linejoin="round"/>
<path d="M2.79761 16.3037C4.8839 11.9832 3.64132 6.3916 7.00648 5.5116C10.3716 4.6316 12.5723 6.13289 14.3326 6.65058C16.0929 7.16828 17.5545 7.44278 17.8792 9.08394C18.3451 11.4397 10.6827 15.6029 12.3136 20.1226" stroke="#023159" stroke-width="0.461743" stroke-linecap="round" stroke-linejoin="round"/>
<path d="M10.7859 11.5691C12.2614 12.7341 13.7849 12.3469 17.1547 10.9351" stroke="#023159" stroke-width="0.461743" stroke-linecap="round" stroke-linejoin="round"/>
<path d="M13.3222 6.28986C13.3222 5.24062 11.4074 4.39829 10.2205 5.33036" stroke="#023159" stroke-width="0.461743" stroke-linecap="round" stroke-linejoin="round"/>
<path d="M9.25877 9.47213C10.1023 9.47213 10.7861 8.78832 10.7861 7.9448C10.7861 7.10129 10.1023 6.41748 9.25877 6.41748C8.41525 6.41748 7.73145 7.10129 7.73145 7.9448C7.73145 8.78832 8.41525 9.47213 9.25877 9.47213Z" stroke="#023159" stroke-width="0.461743" stroke-linecap="round" stroke-linejoin="round"/>
<path d="M9.25883 8.54011C9.58757 8.54011 9.85408 8.27361 9.85408 7.94486C9.85408 7.61611 9.58757 7.34961 9.25883 7.34961C8.93008 7.34961 8.66357 7.61611 8.66357 7.94486C8.66357 8.27361 8.93008 8.54011 9.25883 8.54011Z" stroke="#023159" stroke-width="0.461743" stroke-linecap="round" stroke-linejoin="round"/>
<path d="M15.6269 10.0888C15.8246 10.0888 15.9848 9.92856 15.9848 9.73092C15.9848 9.53327 15.8246 9.37305 15.6269 9.37305C15.4293 9.37305 15.269 9.53327 15.269 9.73092C15.269 9.92856 15.4293 10.0888 15.6269 10.0888Z" fill="#023159"/>
<path d="M19.1049 9.73094C18.8673 5.40989 15.4199 1.95804 11.0994 1.71484" stroke="#023159" stroke-width="0.461743" stroke-linecap="round" stroke-linejoin="round"/>
</g>
<defs>
<clipPath id="clip0_917_159">
<rect width="20.3125" height="20.3125" fill="white" transform="translate(0.466064 0.0405273)"/>
</clipPath>
</defs>
</svg>
